<?xml version="1.0" encoding="UTF-8"?>
<svg id="Ebene_1" data-name="Ebene 1" xmlns="http://www.w3.org/2000/svg" viewBox="0 0 927.65 267.03">
  <path d="M644.42,194.87c4.52,27.96-4.38,54.13-31.99,64.3-23.21,8.55-62.27,11.11-80.01-10.46-12.2-14.83-10.66-37.05,2.57-50.61,6.96-7.14,15.6-10.12,25.71-12.38-6.12-1.73-11.88-3.72-16.8-7.92-10.57-9.01-12.21-24.83-3.45-35.65,4.4-5.43,10.28-8,16.85-10.74-11.08-4.65-17.26-13.53-18.34-24.53-1.39-14.21,5.8-26.56,18.89-32.55,10.84-4.96,22.61-5.93,34.67-4.76,17.83,1.73,33.89-10.19,36.54-27.95,2.08-13.97-4.83-26.94-17.42-32.97-10.07-4.83-29.9-7.38-35.25,1.89-4.93,8.55,1.2,15.41,2.17,24.46,1.01,9.46-5.32,16.5-14.37,16.98s-15.61-5.25-16.4-14.26c-.96-11.07,4.63-21.44,14.29-27.7,14.11-9.14,32.58-11.04,48.26-4.82s24.75,22.73,20.73,39.28c-3.22,13.26-13,22.94-26.29,27.21,8.22,3.37,15.56,7.09,19.91,14.43,9.59,16.21,2.27,35.48-14.63,43.51-15.28,7.26-32.11,6.82-48.74,3.75-4.03-.75-6.56,6.06-6.26,9,2.1,20.86,71.43-.05,88.23,49.56,7.61.6,9.76-9,9.76-15.27l-.03-160.58c0-2.84-1.54-6.58-3.06-7.89-3.7-3.2-14.66-1.1-8.98-4.61l45.59-1.43.06,173.58c0,3.78.68,7.17,1.6,10.32,2.7,9.28,14.29,3.8,11.4,8.74l-55.21.06ZM595.3,117.42c1.73-10.56,4.44-44.67-10.62-45.67-12.46-.83-13.68,22-13.6,31.05.08,8.46.76,28.6,11.12,29.91,7.72.97,12.01-8.68,13.09-15.3ZM595.52,259.17c16.48-5.77,24.41-20.61,23.03-37.05-1.07-12.72-7.54-23.78-19.92-28.69-13.97-5.54-29.58-7.21-44.02-3.46-16.85,4.38-27.89,18.05-27.82,35.33.06,14.14,7.84,26.11,20.98,31.93,14.8,6.56,32.02,7.44,47.74,1.94Z"/>
  <path d="M120.26,194.79l-59.13.09c-.77,0-1.88-.91-2.2-1.22-2.23-2.14,10.24.56,12.16-8.02.69-3.08,1.38-6.32,1.38-9.83l-.02-138.71c0-4.22-.91-8.67-2.94-11.81-5.03-7.81-19.57,2.53-23.56,8.9-9.48,10.47-13.53,23.04-21,36.46-.65-17.29,1.83-33.28,2.39-50.11l124.22.05,3.21,46.66c.06.88-1.12,2.63-1.43,2.32-2.69-2.68-13.23-36-32.16-45.61-3.17-1.61-8.45-2.24-11.01.65s-3.58,7.87-3.58,12.15l.02,141.97c0,4.88,2.14,9.69,5.35,12.36,2.79,2.32,6.84-1.22,8.3,3.71Z"/>
  <path d="M239.34,192.63c-18.91,6.36-38.96,5.23-56.83-2.3-22.49-9.48-35.19-30.54-35.6-54.6-.49-28.4,15.66-52.78,42.68-62.26,18.56-6.51,39.04-5.75,57.31,1.79,22.77,9.4,35.74,30.61,36,54.96.3,28.46-15.83,53.1-43.55,62.42ZM243.82,163.6c4.64-19.98,4.69-40.57.22-60.58-3.39-15.17-12.48-31.88-29.48-31.67s-25.41,16.74-28.74,31.49c-4.43,19.6-4.43,39.74-.15,59.4,3.27,15,12.12,32.05,28.91,32.23,16.65.18,25.78-15.94,29.24-30.87Z"/>
  <path d="M790.08,196.37c-9.92-1.38-16.35-8.42-17.42-17.76-1.75-15.31,9.95-22.76,22.84-27.37s26.04-8.41,39.77-12.14l-.24-32.98c-.06-8.65-2.99-17.61-9.41-23.55-10.08-9.33-26.2-9.44-36.79-1.09-6.76,5.33-9.21,15.03-4.05,22.01,4.61,6.25,20.69,4.02,23.32,16.49,1.4,6.68-.49,13.15-6.35,16.52-10.34,5.95-22.97,1.02-27.5-9.95-2.58-6.23-2.88-12.8-2.15-19.55,1.64-15.21,10.81-27.63,25.16-33.39,14.75-5.93,31.15-6.11,46.25-.39s24.93,19.05,25.02,35.15l.38,69.91c.02,3.44,2.07,6.62,5.07,7.27,11.13,2.42,17.28-20.7,7.89-38.5-.56-1.06-.13-3.58.83-3.92s3.43,1,3.77,2.03c3.4,10.55,3.45,21.6.76,32.14-3.28,12.85-14.13,19.51-26.95,19.5-12.85,0-23.99-7.45-24.6-21.04l-.57-12.62c-7.37,19.42-22.93,36.3-45.01,33.21ZM815.05,173.27c15.8-.41,22.32-18.35,19.91-31.52l-28.1,8.26c-2.24,5.23-3.14,10.88-1.92,16.43.99,4.53,5.05,6.96,10.11,6.83Z"/>
  <path d="M419.02,179.01c-2.01-15.44,9.62-22.99,22.07-27.51,13.44-4.88,26.51-8.62,40.47-12.4l-.24-32.98c-.06-8.64-3-17.62-9.41-23.55-10.09-9.34-26.23-9.47-36.8-1.1-6.75,5.35-9.2,15-4.06,21.99,4.74,6.44,21.32,3.91,23.52,17.32,1.08,6.6-1.09,12.89-7.08,16.05-10.31,5.44-22.5.45-26.96-10.29-2.58-6.23-2.88-12.8-2.15-19.56,1.64-15.19,10.8-27.61,25.16-33.39,14.94-6.02,31.66-6.12,46.88-.12,14.31,5.65,24.29,19.06,24.38,34.88l.42,72.51c.01,2.27,2.09,5.37,3.82,6.02,1.97.75,4.72.24,6.87-.54l1.92-.69c4.1-1.47-4.21,12.67-24.54,10.94-11.58-.98-20.76-8.7-21.32-20.79l-.58-12.66c-7.57,19.95-23.42,36.45-45.38,33.14-9.09-1.37-15.74-7.78-16.98-17.29ZM460.41,173.26c16.26.41,23.35-17.98,20.85-31.53l-28.12,8.27c-2.24,5.25-3.11,10.86-1.91,16.43.89,4.14,4.45,6.71,9.18,6.83Z"/>
  <path d="M394.19,83.74c-1.75-11.95-17.5-10.23-12.53-12.1,3.04-1.14,35.09-.99,42.3-.19-6.37,3.64-11.35,5.17-15.4,10.22-5.19,6.73-9.72,13.44-13.61,21.25l-47.49,95.38-54.23-106.95c-2.31-4.56-4.87-8.58-7.5-12.6-3.12-4.76-7.68-3.48-13.02-7.39l62.92-.45c.3,0,1.74.18,1.8.46,1.06,4.68-7.82-.01-10.06,4.71-1.43,3.01-.23,7.77,1.37,11l35.6,71.64,27.27-55.47c3.01-6.12,3.51-13.17,2.59-19.5Z"/>
  <path d="M704.89,194.86c-1.04,0-2.73-.86-2.44-1.16,2.76-2.86,7.79-.62,10.21-4.34,2.21-3.39,3.44-7.46,3.44-11.67l-.03-94.04c0-2.73-1.43-6.53-2.92-7.9-2.9-2.67-5.6-1.18-10.57-3.01-.57-.21.96-1.62,1.57-1.64l45.49-1.34.05,106.07c0,3.34.72,6.61,1.31,9.55,1.35,6.71,8.73,6.64,12.13,7.53.46.12-.78,1.92-1.71,1.92l-56.53.02Z"/>
  <path d="M731.81,56c-12.28.54-20.92-8.18-20.76-19.93.15-11.12,8.31-19.08,19.4-19.24,11.73-.17,20.37,8.42,20.04,20.19-.3,10.5-7.67,18.5-18.68,18.98Z"/>
</svg>